# xmcd
#
# Track frame offsets: 
#        150
#        23858
#        43706
#        62053
#        76056
#        96139
#        110044
#        134226
#        151940
#        168688
#        190945
#
# Disc length: 2584 seconds
#
# Revision: 0
# Processed by: cddbd v1.5.2PL0 Copyright (c) Steve Scherf et al.
# Submitted via: ExactAudioCopyFreeDBPlugin 1.0
#
DISCID=950a160b
DTITLE=Double Trouble - Been A Long Time
DYEAR=2001
DGENRE=Bluesrock
TTITLE0=Cry Sky
TTITLE1=Turn Towards The Mirror
TTITLE2=Say One Thing
TTITLE3=Rock And Roll
TTITLE4=Skyscraper
TTITLE5=In The Middle Of The Night
TTITLE6=She's All Right
TTITLE7=Groundhog Day
TTITLE8=In The Garden
TTITLE9=Baby There's No One Like You
TTITLE10=Hidden Track
EXTD=
EXTT0=
EXTT1=
EXTT2=
EXTT3=
EXTT4=
EXTT5=
EXTT6=
EXTT7=
EXTT8=
EXTT9=
EXTT10=
PLAYORDER=
